#!OML:ASF H:\MichaelJackson\Top Level 1\Subject 1\Session 1\male.ASF
:FULLY-SPECIFIED
:DEGREES
560
root 3.81431 15.8079 -20.9919 13.9677 -2.25994 -14.7713
lowerback 3.56531 6.45543 4.8042
upperback 0.645294 8.81861 2.54148
thorax -0.999638 4.3907 -0.399944
lowerneck -6.10387 -4.32813 1.28159
upperneck -1.40783 -5.8778 3.18609
head 0.633676 -2.90753 0.626467
rclavicle -1.00287e-013 1.90833e-014
rhumerus -32.5463 -1.32656 -86.9133
rradius 78.9215
rwrist -8.58237
rhand -24.9675 -18.1303
rfingers 7.12502
rthumb 1.54292 -48.1045
lclavicle -1.00287e-013 1.90833e-014
lhumerus -61.6045 -4.95293 96.9505
lradius 60.1507
lwrist 18.0668
lhand -16.6944 7.46921
lfingers 7.12502
lthumb 9.53023 37.2337
rfemur 10.9033 -7.77487 31.1993
rtibia 9.22816
rfoot -19.2312 -17.1096
rtoes -30.4104
lfemur -59.4393 5.13233 -8.86975
ltibia 39.4027
lfoot -13.199 3.50922
ltoes 12.7814
561
root 3.81048 15.7916 -20.8093 14.0546 -2.60375 -14.5505
lowerback 3.75762 6.41105 4.45964
upperback 0.632593 8.75636 2.36052
thorax -1.14465 4.35739 -0.423666
lowerneck -6.12646 -4.15773 1.4476
upperneck -1.49475 -5.65932 3.20373
head 0.603726 -2.79995 0.610741
rclavicle 2.22639e-014 -4.21423e-014
rhumerus -33.4105 -2.33819 -87.2435
rradius 77.4306
rwrist -9.48938
rhand -26.5452 -20.7545
rfingers 7.12502
rthumb 0.0191307 -50.7342
lclavicle 2.22639e-014 -4.21423e-014
lhumerus -59.3282 -4.44082 96.2988
lradius 57.8332
lwrist 17.9216
lhand -18.2601 7.91882
lfingers 7.12502
lthumb 8.01933 37.7467
rfemur 10.3256 -7.71737 30.7584
rtibia 11.471
rfoot -19.2061 -17.598
rtoes -32.5612
lfemur -59.4624 6.12576 -9.89763
ltibia 40.4189
lfoot -12.0158 3.01483
ltoes 13.83
562
root 3.80825 15.7823 -20.6219 14.138 -2.88757 -14.29
lowerback 3.92696 6.33482 4.08993
upperback 0.608001 8.64741 2.15592
thorax -1.29049 4.30107 -0.453501
lowerneck -6.13422 -3.98593 1.6247
upperneck -1.56139 -5.44028 3.27113
head 0.579261 -2.69142 0.60837
rclavicle 7.27552e-014 3.18055e-015
rhumerus -34.2733 -3.26802 -87.5622
rradius 75.8422
rwrist -9.7392
rhand -28.3628 -23.9879
rfingers 7.12502
rthumb -1.73627 -53.9606
lclavicle 7.27552e-014 3.18055e-015
lhumerus -57.04 -3.80712 95.5394
lradius 55.4587
lwrist 17.9122
lhand -19.8031 8.58742
lfingers 7.12502
lthumb 6.5299 38.4667
rfemur 9.66442 -7.83909 30.255
rtibia 13.8381
rfoot -18.9945 -17.926
rtoes -34.5889
lfemur -59.4955 7.11911 -10.9605
ltibia 41.3304
lfoot -10.7094 2.48415
ltoes 14.7545
563
root 3.80749 15.779 -20.4305 14.2023 -3.0779 -14.0071
lowerback 4.06879 6.22137 3.70563
upperback 0.590182 8.48457 1.95364
thorax -1.41772 4.21874 -0.466166
lowerneck -6.13182 -3.81662 1.7886
upperneck -1.60872 -5.22426 3.38459
head 0.561212 -2.58364 0.622004
rclavicle -1.23246e-014 -5.1684e-015
rhumerus -35.1187 -4.06948 -87.8514
rradius 74.18
rwrist -9.36416
rhand -30.2574 -27.8054
rfingers 7.12502
rthumb -3.56607 -57.7553
lclavicle -1.23246e-014 -5.1684e-015
lhumerus -54.7684 -3.07703 94.7375
lradius 53.1311
lwrist 18.0835
lhand -21.4166 9.50007
lfingers 7.12502
lthumb 4.97212 39.4217
rfemur 8.88637 -8.05627 29.7335
rtibia 16.4009
rfoot -18.5352 -18.2031
rtoes -36.5273
lfemur -59.5425 8.09962 -12.0386
ltibia 42.1828
lfoot -9.48077 1.89332
ltoes 15.3896
564
root 3.80814 15.7795 -20.2368 14.2299 -3.13579 -13.7193
lowerback 4.21409 6.05965 3.33794
upperback 0.584324 8.25637 1.76622
thorax -1.53546 4.10427 -0.468013
lowerneck -6.13629 -3.65047 1.93727
upperneck -1.6241 -5.01289 3.52807
head 0.555723 -2.47717 0.646624
rclavicle 2.14687e-014 2.34566e-014
rhumerus -35.9464 -4.72459 -88.1096
rradius 72.4527
rwrist -8.44308
rhand -32.0129 -32.0533
rfingers 7.12502
rthumb -5.2612 -61.968
lclavicle 2.14687e-014 2.34566e-014
lhumerus -52.5516 -2.30572 93.95
lradius 50.9625
lwrist 18.4693
lhand -23.1912 10.6834
lfingers 7.12502
lthumb 3.25841 40.6382
rfemur 7.9758 -8.40279 29.2192
rtibia 19.2036
rfoot -17.7682 -18.4267
rtoes -38.4127
lfemur -59.5989 9.04769 -13.1105
ltibia 43.0318
lfoot -8.54009 1.23232
ltoes 15.6254
565
root 3.81024 15.7819 -20.042 14.2096 -3.04584 -13.4443
lowerback 4.39171 5.85024 3.02186
upperback 0.587821 7.96673 1.59436
thorax -1.65718 3.95905 -0.480062
lowerneck -6.14164 -3.49354 2.08068
upperneck -1.60609 -4.81489 3.69014
head 0.561558 -2.37645 0.677125
rclavicle -6.81831e-014 -1.82882e-014
rhumerus -36.7681 -5.25345 -88.3373
rradius 70.6595
rwrist -7.11271
rhand -33.4393 -36.4319
rfingers 7.12502
rthumb -6.63827 -66.3078
lclavicle -6.81831e-014 -1.82882e-014
lhumerus -50.444 -1.58999 93.2288
lradius 49.0784
lwrist 19.0425
lhand -25.1744 12.1758
lfingers 7.12502
lthumb 1.34309 42.1513
rfemur 6.9217 -8.90522 28.7278
rtibia 22.2698
rfoot -16.6532 -18.5473
rtoes -40.1995
lfemur -59.6532 9.96162 -14.1611
ltibia 43.9214
lfoot -7.99202 0.490451
ltoes 15.3821
566
root 3.81437 15.785 -19.8467 14.1268 -2.83837 -13.1962
lowerback 4.61375 5.60029 2.77468
upperback 0.614321 7.62612 1.44322
thorax -1.77387 3.78833 -0.506545
lowerneck -6.15953 -3.34206 2.20745
upperneck -1.55598 -4.62502 3.86522
head 0.580316 -2.27867 0.713694
rclavicle -1.27222e-014 -5.56597e-015
rhumerus -37.5715 -5.66335 -88.5292
rradius 68.7907
rwrist -5.56548
rhand -34.455 -40.4707
rfingers 7.12502
rthumb -7.61872 -70.3135
lclavicle -1.27222e-014 -5.56597e-015
lhumerus -48.4772 -1.00639 92.6267
lradius 47.5891
lwrist 19.6969
lhand -27.337 13.9625
lfingers 7.12502
lthumb -0.745585 43.9409
rfemur 5.73399 -9.55538 28.2522
rtibia 25.6028
rfoot -15.1966 -18.4647
rtoes -41.6956
lfemur -59.6697 10.8631 -15.1722
ltibia 44.8699
lfoot -7.86836 -0.350471
ltoes 15.1241
567
root 3.82109 15.7885 -19.6509 13.9811 -2.55859 -12.9791
lowerback 4.88539 5.32205 2.6077
upperback 0.663677 7.25171 1.30355
thorax -1.88614 3.60047 -0.563733
lowerneck -6.19069 -3.19498 2.32038
upperneck -1.47738 -4.44215 4.04777
head 0.610721 -2.18333 0.754356
rclavicle -1.11518e-013 2.38542e-015
rhumerus -38.3733 -5.97141 -88.688
rradius 66.8616
rwrist -3.99525
rhand -35.0853 -43.7043
rfingers 7.12502
rthumb -8.22712 -73.5242
lclavicle -1.11518e-013 2.38542e-015
lhumerus -46.6813 -0.650358 92.175
lradius 46.5584
lwrist 20.2983
lhand -29.5907 15.9398
lfingers 7.12502
lthumb -2.92218 45.8995
rfemur 4.42056 -10.3134 27.7765
rtibia 29.1829
rfoot -13.4494 -18.0769
rtoes -42.6638
lfemur -59.6112 11.7782 -16.1426
ltibia 45.8615
lfoot -8.13227 -1.30188
ltoes 15.0346
568
root 3.83098 15.793 -19.4554 13.7868 -2.25476 -12.784
lowerback 5.17252 5.03513 2.49546
upperback 0.747738 6.86735 1.17834
thorax -1.96677 3.40804 -0.631684
lowerneck -6.22264 -3.05424 2.41622
upperneck -1.40283 -4.26684 4.22186
head 0.64016 -2.09172 0.795294
rclavicle -3.29983e-014 -1.19271e-014
rhumerus -39.1505 -6.20842 -88.7919
rradius 64.8813
rwrist -2.56906
rhand -35.4373 -45.8126
rfingers 7.12502
rthumb -8.56682 -75.6188
lclavicle -3.29983e-014 -1.19271e-014
lhumerus -45.0457 -0.596657 91.913
lradius 45.9939
lwrist 20.6715
lhand -31.824 17.9711
lfingers 7.12502
lthumb -5.07877 47.8903
rfemur 2.96985 -11.1209 27.2817
rtibia 32.9816
rfoot -11.3411 -17.3835
rtoes -43.1381
lfemur -59.4766 12.7296 -17.082
ltibia 46.8555
lfoot -8.66642 -2.37857
ltoes 15.2257
569
root 3.84412 15.7996 -19.2602 13.5578 -1.96162 -12.5866
lowerback 5.46856 4.74615 2.41565
upperback 0.858862 6.48087 1.05349
thorax -2.02129 3.21492 -0.713186
lowerneck -6.25645 -2.91879 2.49003
upperneck -1.33656 -4.09711 4.38554
head 0.667528 -2.00302 0.836782
rclavicle -5.50634e-014 7.15625e-015
rhumerus -39.9278 -6.37918 -88.8511
rradius 62.9049
rwrist -1.40888
rhand -35.6394 -46.6552
rfingers 7.12502
rthumb -8.76182 -76.4534
lclavicle -5.50634e-014 7.15625e-015
lhumerus -43.5788 -0.880073 91.8189
lradius 45.8814
lwrist 20.629
lhand -33.8701 20.0456
lfingers 7.12502
lthumb -7.05422 49.908
rfemur 1.37801 -11.9104 26.7479
rtibia 36.9639
rfoot -8.84646 -16.4115
rtoes -43.0986
lfemur -59.2605 13.7106 -17.9999
ltibia 47.7986
lfoot -9.31474 -3.58038
ltoes 15.7864
570
root 3.86074 15.8091 -19.0662 13.3252 -1.72159 -12.3648
lowerback 5.75153 4.475 2.34617
upperback 0.9838 6.11709 0.912922
thorax -2.05155 3.03354 -0.813271
lowerneck -6.27646 -2.79402 2.55018
upperneck -1.29517 -3.93913 4.53346
head 0.684688 -1.92106 0.87593
rclavicle -5.52621e-014 5.56597e-015
rhumerus -40.7217 -6.53068 -88.8666
rradius 60.9793
rwrist -0.552588
rhand -35.8277 -46.2321
rfingers 7.12502
rthumb -8.94352 -76.0226
lclavicle -5.52621e-014 5.56597e-015
lhumerus -42.2763 -1.53122 91.8641
lradius 46.1654
lwrist 20.0936
lhand -35.5491 21.953
lfingers 7.12502
lthumb -8.67467 51.7548
rfemur -0.379061 -12.6071 26.1597
rtibia 41.0944
rfoot -5.91177 -15.1921
rtoes -42.3435
lfemur -58.9775 14.7197 -18.9124
ltibia 48.6476
lfoot -9.94451 -4.87444
ltoes 16.7984
571
root 3.88069 15.8219 -18.8741 13.1153 -1.55392 -12.0957
lowerback 6.0058 4.22752 2.25782
upperback 1.11458 5.78185 0.754245
thorax -2.05991 2.86695 -0.918585
lowerneck -6.29445 -2.67913 2.58139
upperneck -1.27638 -3.79114 4.66062
head 0.694541 -1.84487 0.913501
rclavicle 1.14102e-013 -1.03368e-014
rhumerus -41.5253 -6.68053 -88.831
rradius 59.1273
rwrist 0.0387608
rhand -36.0533 -44.7002
rfingers 7.12502
rthumb -9.16128 -74.4812
lclavicle 1.14102e-013 -1.03368e-014
lhumerus -41.117 -2.50589 92.0031
lradius 46.7875
lwrist 19.0811
lhand -36.7186 23.4476
lfingers 7.12502
lthumb -9.80312 53.1995
rfemur -2.31621 -13.1635 25.5113
rtibia 45.331
rfoot -2.57369 -13.8097
rtoes -40.7661
lfemur -58.6437 15.7409 -19.8381
ltibia 49.3768
lfoot -10.49 -6.21122
ltoes 18.236
572
root 3.90322 15.8375 -18.6857 12.9428 -1.44713 -11.7711
lowerback 6.2365 4.00751 2.13837
upperback 1.23844 5.47996 0.579765
thorax -2.06348 2.71727 -1.02212
lowerneck -6.30714 -2.57891 2.58758
upperneck -1.28256 -3.65931 4.7558
head 0.695487 -1.77785 0.945201
rclavicle -6.12257e-014 -1.19271e-014
rhumerus -42.3512 -6.86057 -88.73
rradius 57.3815
rwrist 0.4317
rhand -36.3321 -42.3292
rfingers 7.12502
rthumb -9.43022 -72.0983
lclavicle -6.12257e-014 -1.19271e-014
lhumerus -40.0806 -3.75524 92.1946
lradius 47.7003
lwrist 17.7185
lhand -37.3433 24.3238
lfingers 7.12502
lthumb -10.4059 54.0463
rfemur -4.43841 -13.5606 24.8224
rtibia 49.6285
rfoot 1.12235 -12.3596
rtoes -37.9272
lfemur -58.2706 16.7341 -20.7713
ltibia 49.9849
lfoot -10.9647 -7.5314
ltoes 19.9279
573
root 3.92758 15.8557 -18.5014 12.8031 -1.38829 -11.3916
lowerback 6.45726 3.80952 1.97891
upperback 1.35404 5.20412 0.401506
thorax -2.07302 2.58069 -1.10769
lowerneck -6.32763 -2.4878 2.55244
upperneck -1.30121 -3.53621 4.81958
head 0.693968 -1.71571 0.973819
rclavicle 1.59028e-015 -7.95139e-016
rhumerus -43.1827 -7.07625 -88.5517
rradius 55.7279
rwrist 0.766048
rhand -36.6671 -39.4271
rfingers 7.12502
rthumb -9.75349 -69.1812
lclavicle 1.59028e-015 -7.95139e-016
lhumerus -39.1541 -5.19201 92.398
lradius 48.9025
lwrist 16.2487
lhand -37.4392 24.4957
lfingers 7.12502
lthumb -10.4984 54.2135
rfemur -6.72126 -13.8028 24.1075
rtibia 53.9423
rfoot 4.97061 -10.9478
rtoes -33.6897
lfemur -57.8469 17.6658 -21.6933
ltibia 50.4792
lfoot -11.4193 -8.78564
ltoes 21.659
